<?xml version="1.0" encoding="UTF-8" standalone="no"?>
<svg
   id="Layer_1"
   data-name="Layer 1"
   viewBox="0 0 40.003952 40.003952"
   version="1.1"
   sodipodi:docname="covid-19.svg"
   width="40.003952"
   height="40.003952"
   inkscape:version="1.1 (c68e22c387, 2021-05-23)"
   xmlns:inkscape="http://www.inkscape.org/namespaces/inkscape"
   xmlns:sodipodi="http://sodipodi.sourceforge.net/DTD/sodipodi-0.dtd"
   xmlns="http://www.w3.org/2000/svg"
   xmlns:svg="http://www.w3.org/2000/svg">
  <defs
     id="defs7" />
  <sodipodi:namedview
     id="namedview5"
     pagecolor="#ffffff"
     bordercolor="#666666"
     borderopacity="1.0"
     inkscape:pageshadow="2"
     inkscape:pageopacity="0.0"
     inkscape:pagecheckerboard="0"
     showgrid="false"
     fit-margin-top="0"
     fit-margin-left="0"
     fit-margin-right="0"
     fit-margin-bottom="0"
     inkscape:zoom="9.9993108"
     inkscape:cx="72.504997"
     inkscape:cy="20.001378"
     inkscape:window-width="3840"
     inkscape:window-height="2066"
     inkscape:window-x="3829"
     inkscape:window-y="767"
     inkscape:window-maximized="1"
     inkscape:current-layer="Layer_1" />
  <path
     d="m 15.503953,14 c 0,1.33645 -1.615708,2.005505 -2.560606,1.060606 C 11.998448,14.115708 12.667503,12.5 14.003953,12.5 c 0.828427,0 1.5,0.671573 1.5,1.5 z m 4.5,-2 c -1.781934,0 -2.674006,2.154277 -1.414142,3.414142 1.259865,1.259864 3.414142,0.367792 3.414142,-1.414142 0,-1.104569 -0.895431,-2 -2,-2 z m -6,6 c -1.781934,0 -2.674006,2.154277 -1.414142,3.414142 1.259865,1.259864 3.414142,0.367792 3.414142,-1.414142 0,-1.104569 -0.895431,-2 -2,-2 z m 6,-0.5 c -2.227417,0 -3.342508,2.692846 -1.767677,4.267677 1.574831,1.574831 4.267677,0.45974 4.267677,-1.767677 0,-1.380712 -1.119288,-2.5 -2.5,-2.5 z M 8.0039527,13 C 7.1129859,13 6.6669495,14.077139 7.2968818,14.707071 7.9268141,15.337003 9.0039527,14.890967 9.0039527,14 c 0,-0.552285 -0.4477153,-1 -1,-1 z m -6,5 C 0.22201912,18 -0.6700536,20.154277 0.58981102,21.414142 1.8496756,22.674006 4.0039527,21.781934 4.0039527,20 c 0,-1.104569 -0.8954305,-2 -2,-2 z m 6,0.5 C 6.6675025,18.5 5.9984479,20.115708 6.9433464,21.060606 7.8882449,22.005505 9.5039527,21.33645 9.5039527,20 c 0,-0.828427 -0.6715729,-1.5 -1.5,-1.5 z M 20.003953,0 C 18.222019,0 17.329947,2.1542771 18.589811,3.4141417 19.849676,4.6740063 22.003953,3.7819336 22.003953,2 c 0,-1.1045695 -0.895431,-2 -2,-2 z m -6,7 C 13.112986,7 12.66695,8.0771386 13.296882,8.7070709 13.926814,9.3370032 15.003953,8.8909668 15.003953,8 c 0,-0.5522847 -0.447715,-1 -1,-1 z m 6,-0.5 c -1.33645,0 -2.005505,1.6157078 -1.060606,2.5606063 C 19.888245,10.005505 21.503953,9.3364502 21.503953,8 c 0,-0.8284271 -0.671573,-1.5 -1.5,-1.5 z M 8.0039527,5.5 C 5.7765357,5.5 4.6614448,8.1928464 6.2362755,9.7676772 7.8111063,11.342508 10.503953,10.227417 10.503953,8 c 0,-1.3807119 -1.1192884,-2.5 -2.5000003,-2.5 z M 38.003953,18 c -1.781934,0 -2.674006,2.154277 -1.414142,3.414142 1.259865,1.259864 3.414142,0.367792 3.414142,-1.414142 0,-1.104569 -0.895431,-2 -2,-2 z m -12,-5.5 c -1.33645,0 -2.005505,1.615708 -1.060606,2.560606 0.944898,0.944899 2.560606,0.275844 2.560606,-1.060606 0,-0.828427 -0.671573,-1.5 -1.5,-1.5 z m 6,0.5 c -0.890967,0 -1.337003,1.077139 -0.707071,1.707071 0.629932,0.629932 1.707071,0.183896 1.707071,-0.707071 0,-0.552285 -0.447715,-1 -1,-1 z m -6,5 c -1.781934,0 -2.674006,2.154277 -1.414142,3.414142 1.259865,1.259864 3.414142,0.367792 3.414142,-1.414142 0,-1.104569 -0.895431,-2 -2,-2 z m 6,0.5 c -1.33645,0 -2.005505,1.615708 -1.060606,2.560606 0.944898,0.944899 2.560606,0.275844 2.560606,-1.060606 0,-0.828427 -0.671573,-1.5 -1.5,-1.5 z m -6,-11.5 C 25.112986,7 24.66695,8.0771386 25.296882,8.7070709 25.926814,9.3370032 27.003953,8.8909668 27.003953,8 c 0,-0.5522847 -0.447715,-1 -1,-1 z m 6,-1.5 C 29.776536,5.5 28.661445,8.1928464 30.236276,9.7676772 31.811107,11.342508 34.503953,10.227417 34.503953,8 c 0,-1.3807119 -1.119288,-2.5 -2.5,-2.5 z m -12,30.5 c -1.781934,0 -2.674006,2.154277 -1.414142,3.414142 1.259865,1.259864 3.414142,0.367792 3.414142,-1.414142 0,-1.104569 -0.895431,-2 -2,-2 z m -6,-11.5 c -1.33645,0 -2.005505,1.615708 -1.060606,2.560606 0.944898,0.944899 2.560606,0.275844 2.560606,-1.060606 0,-0.828427 -0.671573,-1.5 -1.5,-1.5 z m 6,-0.5 c -1.781934,0 -2.674006,2.154277 -1.414142,3.414142 1.259865,1.259864 3.414142,0.367792 3.414142,-1.414142 0,-1.104569 -0.895431,-2 -2,-2 z m -6,7 c -0.890967,0 -1.337003,1.077139 -0.707071,1.707071 0.629932,0.629932 1.707071,0.183896 1.707071,-0.707071 0,-0.552285 -0.447715,-1 -1,-1 z m 6,-0.5 c -1.33645,0 -2.005505,1.615708 -1.060606,2.560606 0.944898,0.944899 2.560606,0.275844 2.560606,-1.060606 0,-0.828427 -0.671573,-1.5 -1.5,-1.5 z M 8.0039527,25 C 7.1129859,25 6.6669495,26.077139 7.2968818,26.707071 7.9268141,27.337003 9.0039527,26.890967 9.0039527,26 c 0,-0.552285 -0.4477153,-1 -1,-1 z m 0,4.5 c -2.227417,0 -3.3425079,2.692846 -1.7676772,4.267677 1.5748308,1.574831 4.2676775,0.45974 4.2676775,-1.767677 0,-1.380712 -1.1192884,-2.5 -2.5000003,-2.5 z m 18.0000003,-5 c -1.33645,0 -2.005505,1.615708 -1.060606,2.560606 0.944898,0.944899 2.560606,0.275844 2.560606,-1.060606 0,-0.828427 -0.671573,-1.5 -1.5,-1.5 z m 6,0.5 c -0.890967,0 -1.337003,1.077139 -0.707071,1.707071 0.629932,0.629932 1.707071,0.183896 1.707071,-0.707071 0,-0.552285 -0.447715,-1 -1,-1 z m -6,6 c -0.890967,0 -1.337003,1.077139 -0.707071,1.707071 0.629932,0.629932 1.707071,0.183896 1.707071,-0.707071 0,-0.552285 -0.447715,-1 -1,-1 z m 6,-1.5 c -2.227417,0 -3.342508,2.692846 -1.767677,4.267677 1.574831,1.574831 4.267677,0.45974 4.267677,-1.767677 0,-1.380712 -1.119288,-2.5 -2.5,-2.5 z"
     id="path2"
     sodipodi:nodetypes="ssssssssssssssssssssssssssssssssssssssssssssssssssssssssssssssssssssssssssssssssssssssssssssssssssssssssssssssssssss" />
</svg>
